<svg width="395" height="146" viewBox="0 0 395 146" fill="none" xmlns="http://www.w3.org/2000/svg">
<path d="M12.8049 118.855L2.66992 136.914V145.301H393.326V9.19601L388.985 7.03977C384.645 4.88353 375.963 0.571062 367.282 3.71173C358.601 6.85241 349.92 17.4462 341.238 39.5906C332.557 61.735 323.876 95.43 315.195 107.363C306.513 119.297 297.832 109.469 289.151 89.1084C280.47 68.7478 271.788 37.8545 263.107 42.1374C254.426 46.4203 245.745 85.8794 237.063 106.953C228.382 128.026 219.701 130.714 211.02 113.924C202.339 97.1336 193.657 60.8657 184.976 53.8099C176.295 46.7541 167.614 68.9105 158.932 86.1929C150.251 103.475 141.57 115.884 132.889 118.855C124.207 121.827 115.526 66.0356 106.845 71.7838C98.1636 77.532 89.4824 95.4941 80.8011 95.9658C72.1199 96.4376 63.4386 79.4191 54.7574 77.83C46.0761 76.2409 36.6885 109.726 28.0073 113.924C19.326 118.122 17.4117 108.851 12.8049 118.855Z" fill="url(#paint0_linear_518_25074)"/>
<path d="M2.66992 136.836L12.8049 118.788C17.4117 108.79 19.326 118.055 28.0073 113.859C36.6885 109.664 46.0761 76.1983 54.7574 77.7865C63.4386 79.3746 72.1199 96.3833 80.8011 95.9118C89.4824 95.4403 98.1636 77.4887 106.845 71.7438C115.526 65.9989 124.207 121.758 132.889 118.788C141.57 115.818 150.251 103.417 158.932 86.1446C167.614 68.8721 176.295 46.7286 184.976 53.7803C193.657 60.832 202.339 97.0789 211.02 113.859C219.701 130.64 228.382 127.954 237.063 106.892C245.745 85.8312 254.426 46.395 263.107 42.1146C271.788 37.8341 280.47 68.7095 289.151 89.0583C297.832 109.407 306.513 119.229 315.195 107.303C323.876 95.3763 332.557 61.7008 341.238 39.5692C349.92 17.4376 358.601 6.84995 367.282 3.71109C375.963 0.572237 384.645 4.88222 388.985 7.03721L393.326 9.19219" stroke="#4F45B6" stroke-width="4"/>
<path d="M188.828 52.1835C188.828 55.8055 187.738 59.0059 186.072 61.2541C184.406 63.5027 182.264 64.6951 180.076 64.6951C177.888 64.6951 175.746 63.5027 174.08 61.2541C172.415 59.0059 171.324 55.8055 171.324 52.1835C171.324 48.5615 172.415 45.3611 174.08 43.1129C175.746 40.8643 177.888 39.6719 180.076 39.6719C182.264 39.6719 184.406 40.8643 186.072 43.1129C187.738 45.3611 188.828 48.5615 188.828 52.1835Z" fill="#4F45B6" stroke="white" stroke-width="4"/>
<defs>
<linearGradient id="paint0_linear_518_25074" x1="197.998" y1="-177.32" x2="197.998" y2="145.301" gradientUnits="userSpaceOnUse">
<stop stop-color="#4F45B6"/>
<stop offset="1" stop-color="#4F45B6" stop-opacity="0"/>
</linearGradient>
</defs>
</svg>
