<svg width="49" height="48" viewBox="0 0 49 48" fill="none" xmlns="http://www.w3.org/2000/svg">
<rect x="1" y="0.5" width="47" height="47" rx="1.5" fill="#EAF6FE"/>
<rect x="1" y="0.5" width="47" height="47" rx="1.5" stroke="#D5EDFD"/>
<path d="M24.5 27C27.8137 27 30.5 24.3137 30.5 21C30.5 17.6863 27.8137 15 24.5 15C21.1863 15 18.5 17.6863 18.5 21C18.5 24.3137 21.1863 27 24.5 27Z" stroke="white" stroke-width="1.5" stroke-miterlimit="10"/>
<path d="M15.4062 32.2508C16.3278 30.6544 17.6533 29.3287 19.2496 28.407C20.8459 27.4853 22.6567 27 24.5 27C26.3433 27 28.1541 27.4853 29.7504 28.407C31.3467 29.3287 32.6722 30.6544 33.5938 32.2508" stroke="white" stroke-width="1.5" stroke-linecap="round" stroke-linejoin="round"/>
</svg>
