<svg width="500" height="500" viewBox="0 0 500 500" fill="none" xmlns="http://www.w3.org/2000/svg">
<path d="M500 382.4H0V382.65H500V382.4Z" fill="#FDEEEE"/>
<path d="M449.899 398.49H428.219V398.74H449.899V398.49Z" fill="#FDEEEE"/>
<path d="M344.669 393.31H310.559V393.56H344.669V393.31Z" fill="#FDEEEE"/>
<path d="M441.12 389.21H396.59V389.46H441.12V389.21Z" fill="#FDEEEE"/>
<path d="M173.019 394.25H161.879V394.5H173.019V394.25Z" fill="#FDEEEE"/>
<path d="M152.968 394.25H114.578V394.5H152.968V394.25Z" fill="#FDEEEE"/>
<path d="M94.0086 390.03H66.3086V390.28H94.0086V390.03Z" fill="#FDEEEE"/>
<path d="M237.001 337.8H43.9109C42.3983 337.797 40.9485 337.195 39.8798 336.124C38.8112 335.053 38.2109 333.603 38.2109 332.09V60.66C38.2241 59.156 38.8301 57.718 39.8974 56.6582C40.9646 55.5985 42.4069 55.0026 43.9109 55H237.001C238.515 55 239.968 55.6016 241.039 56.6724C242.109 57.7433 242.711 59.1956 242.711 60.71V332.09C242.711 333.604 242.109 335.057 241.039 336.128C239.968 337.198 238.515 337.8 237.001 337.8ZM43.9109 55.2C42.4646 55.2026 41.0784 55.7791 40.0566 56.8027C39.0348 57.8264 38.4609 59.2136 38.4609 60.66V332.09C38.4609 333.536 39.0348 334.924 40.0566 335.947C41.0784 336.971 42.4646 337.547 43.9109 337.55H237.001C238.448 337.547 239.835 336.971 240.859 335.948C241.882 334.924 242.458 333.537 242.461 332.09V60.66C242.458 59.2127 241.882 57.8255 240.859 56.8021C239.835 55.7787 238.448 55.2026 237.001 55.2H43.9109Z" fill="#FDEEEE"/>
<path d="M453.31 337.8H260.21C258.696 337.797 257.246 337.195 256.175 336.125C255.105 335.054 254.503 333.604 254.5 332.09V60.66C254.516 59.1551 255.124 57.7171 256.193 56.6576C257.262 55.5981 258.705 55.0025 260.21 55H453.31C454.812 55.0052 456.252 55.6022 457.317 56.6617C458.382 57.7212 458.987 59.1578 459 60.66V332.09C459 333.601 458.401 335.05 457.335 336.121C456.268 337.191 454.821 337.795 453.31 337.8ZM260.21 55.2C258.763 55.2026 257.375 55.7787 256.352 56.8021C255.329 57.8255 254.753 59.2127 254.75 60.66V332.09C254.753 333.537 255.329 334.924 256.352 335.948C257.375 336.971 258.763 337.547 260.21 337.55H453.31C454.757 337.547 456.145 336.971 457.168 335.948C458.191 334.924 458.767 333.537 458.77 332.09V60.66C458.767 59.2127 458.191 57.8255 457.168 56.8021C456.145 55.7787 454.757 55.2026 453.31 55.2H260.21Z" fill="#FDEEEE"/>
<path d="M216.071 200.88L216.521 187.74L208.461 185.1C208.114 180.647 207.392 176.231 206.301 171.9L213.141 166.9L208.501 154.56L200.041 155.24C198.035 151.264 195.693 147.467 193.041 143.89L197.421 136.58L188.421 126.97L180.861 130.84C177.461 127.934 173.829 125.312 170.001 123L171.221 114.6L159.221 109.16L153.721 115.6C149.478 114.243 145.13 113.239 140.721 112.6L138.721 104.37L125.541 103.92L122.941 111.99C118.492 112.34 114.08 113.059 109.751 114.14L104.671 107.34L92.3308 111.95L93.0108 120.41C89.0371 122.446 85.2405 124.811 81.6608 127.48L74.3008 123L64.6508 132L68.5208 139.6C65.6142 142.982 63.0045 146.609 60.7208 150.44L52.3308 149.18L46.8508 161.18L53.3308 166.67C51.9639 170.91 50.9603 175.259 50.3308 179.67L42.0008 181.76L41.5508 194.9L49.6508 197.54C49.9858 201.99 50.7052 206.403 51.8008 210.73L44.9608 215.73L49.6108 228.08L58.0708 227.4C60.0715 231.379 62.4136 235.176 65.0708 238.75L60.6808 246.06L69.6808 255.67L77.2408 251.8C80.6314 254.705 84.2572 257.324 88.0808 259.63L86.8208 268.02L98.8208 273.47L104.351 267.03C108.594 268.399 112.942 269.42 117.351 270.08L119.351 278.31L132.531 278.76L135.131 270.69C139.582 270.336 143.997 269.617 148.331 268.54L153.331 275.34L165.671 270.73L165.031 262.27C168.997 260.221 172.793 257.856 176.381 255.2L183.651 259.58L193.301 250.58L189.431 242.98C192.338 239.598 194.948 235.971 197.231 232.14L205.621 233.4L211.101 221.4L204.621 215.9C206.011 211.663 207.031 207.313 207.671 202.9L216.071 200.88ZM127.281 243.45C116.969 243.102 106.992 239.703 98.6116 233.683C90.2315 227.664 83.825 219.294 80.2024 209.633C76.5798 199.972 75.9039 189.453 78.2602 179.408C80.6165 169.363 85.8991 160.242 93.4398 153.199C100.98 146.157 110.441 141.509 120.623 139.844C130.806 138.178 141.254 139.57 150.645 143.844C160.036 148.117 167.949 155.08 173.383 163.851C178.817 172.622 181.527 182.808 181.171 193.12C180.696 206.939 174.753 220.005 164.647 229.443C154.541 238.881 141.101 243.919 127.281 243.45Z" fill="#FDEEEE"/>
<path d="M441.001 157.42L444.311 154.33L443.001 151.72C444 150.551 444.9 149.3 445.691 147.98L448.591 148.41L450.461 144.27L448.241 142.38C448.719 140.916 449.07 139.414 449.291 137.89L452.141 137.18L452.281 132.64L449.501 131.74C449.379 130.203 449.131 128.678 448.761 127.18L451.111 125.43L449.511 121.18L446.601 121.41C445.899 120.04 445.086 118.728 444.171 117.49L445.681 114.99L442.571 111.67L439.971 113C438.8 112.003 437.549 111.104 436.231 110.31L436.651 107.41L432.521 105.52L430.621 107.75C429.154 107.294 427.653 106.959 426.131 106.75L425.421 103.91L420.881 103.74L419.971 106.54C418.439 106.657 416.92 106.905 415.431 107.28L413.691 104.93L409.431 106.52L409.671 109.44C408.296 110.135 406.985 110.948 405.751 111.87L403.231 110.36L399.911 113.45L401.201 116C400.194 117.166 399.291 118.418 398.501 119.74L395.611 119.31L393.731 123.45L395.961 125.35C395.499 126.812 395.164 128.311 394.961 129.83L392.101 130.54L391.961 135.08L394.751 135.98C394.865 137.518 395.109 139.044 395.481 140.54L393.121 142.28L394.721 146.53L397.641 146.31C398.343 147.681 399.155 148.992 400.071 150.23L398.561 152.73L401.671 156.05L404.271 154.72C405.44 155.72 406.691 156.62 408.011 157.41L407.581 160.3L411.721 162.19L413.621 159.97C415.089 160.422 416.59 160.757 418.111 160.97L418.821 163.81L423.361 163.98L424.271 161.18C425.803 161.064 427.322 160.816 428.811 160.44L430.551 162.79L434.811 161.2L434.581 158.28C435.952 157.584 437.26 156.771 438.491 155.85L441.001 157.42ZM417.381 138.29C416.508 137.355 415.932 136.181 415.726 134.918C415.519 133.654 415.693 132.358 416.223 131.194C416.754 130.029 417.618 129.048 418.706 128.374C419.795 127.701 421.058 127.365 422.337 127.41C423.617 127.455 424.854 127.878 425.892 128.626C426.931 129.374 427.724 130.413 428.172 131.612C428.62 132.811 428.702 134.116 428.408 135.362C428.114 136.607 427.457 137.738 426.521 138.61C425.899 139.196 425.168 139.653 424.368 139.955C423.569 140.256 422.718 140.396 421.864 140.366C421.01 140.336 420.171 140.138 419.395 139.781C418.618 139.425 417.92 138.918 417.341 138.29H417.381Z" fill="#FDEEEE"/>
<path d="M319.998 292.34L309.658 285.19C308.645 281.467 307.251 277.858 305.498 274.42L308.148 264.02L293.148 247.96L282.588 249.89C279.275 247.906 275.767 246.267 272.118 245L265.698 234.19L243.698 233.44L236.558 243.78C232.839 244.793 229.234 246.184 225.798 247.93L215.398 245.28L199.338 260.28L201.268 270.82C199.285 274.14 197.65 277.655 196.388 281.31L185.578 287.73L184.828 309.73L195.178 316.87C196.175 320.614 197.566 324.241 199.328 327.69L196.648 338L211.648 354.06L222.138 352.14C225.476 354.127 229.007 355.769 232.678 357.04L239.088 367.83L261.088 368.59L268.218 358.25C271.97 357.237 275.609 355.843 279.078 354.09L289.418 356.73L305.488 341.73L303.558 331.19C305.547 327.87 307.183 324.351 308.438 320.69L319.248 314.27L319.998 292.34ZM251.548 325.73C246.664 325.563 241.939 323.952 237.971 321.1C234.003 318.248 230.969 314.284 229.254 309.708C227.539 305.132 227.219 300.15 228.335 295.392C229.451 290.634 231.953 286.315 235.524 282.978C239.095 279.642 243.575 277.44 248.397 276.65C253.22 275.86 258.168 276.517 262.617 278.539C267.066 280.562 270.815 283.857 273.391 288.01C275.967 292.163 277.253 296.986 277.088 301.87C276.859 308.421 274.039 314.612 269.249 319.086C264.459 323.559 258.089 325.949 251.538 325.73H251.548Z" fill="#FDEEEE"/>
<path d="M343.551 230H343.481L326.161 229.41C325.81 229.404 325.467 229.309 325.163 229.134C324.859 228.959 324.603 228.71 324.421 228.41L319.751 220.56C317.234 219.639 314.799 218.509 312.471 217.18L305.001 218.47C304.653 218.534 304.295 218.508 303.959 218.397C303.623 218.285 303.322 218.09 303.081 217.83L291.251 205.17C291.003 204.908 290.827 204.586 290.739 204.236C290.651 203.885 290.656 203.518 290.751 203.17L292.641 195.76C291.47 193.359 290.513 190.859 289.781 188.29L282.251 183.09C281.959 182.889 281.723 182.618 281.564 182.302C281.405 181.985 281.328 181.634 281.341 181.28L281.931 163.96C281.943 163.61 282.04 163.269 282.215 162.965C282.389 162.662 282.635 162.406 282.931 162.22L290.801 157.55C291.709 155.039 292.837 152.613 294.171 150.3L292.791 142.77C292.727 142.42 292.752 142.06 292.864 141.723C292.975 141.385 293.171 141.082 293.431 140.84L306.091 129.02C306.353 128.771 306.674 128.593 307.025 128.504C307.375 128.414 307.742 128.417 308.091 128.51L315.531 130.41C317.926 129.238 320.419 128.278 322.981 127.54L328.181 120.01C328.375 119.711 328.644 119.469 328.963 119.309C329.281 119.149 329.636 119.077 329.991 119.1L347.301 119.7C347.653 119.707 347.998 119.803 348.303 119.977C348.609 120.152 348.866 120.401 349.051 120.7L353.721 128.56C356.22 129.477 358.636 130.608 360.941 131.94L368.501 130.55C368.849 130.485 369.208 130.51 369.544 130.622C369.88 130.734 370.182 130.929 370.421 131.19L382.251 143.85C382.498 144.113 382.673 144.435 382.761 144.785C382.848 145.135 382.845 145.502 382.751 145.85L380.851 153.28C382.023 155.676 382.986 158.169 383.731 160.73L391.251 165.93C391.543 166.13 391.78 166.402 391.939 166.718C392.098 167.034 392.175 167.386 392.161 167.74L391.571 185.05C391.559 185.401 391.462 185.744 391.288 186.049C391.114 186.354 390.868 186.612 390.571 186.8L382.701 191.47C381.788 193.975 380.66 196.398 379.331 198.71L380.711 206.25C380.776 206.598 380.751 206.957 380.639 207.293C380.527 207.628 380.332 207.93 380.071 208.17L367.331 220C367.069 220.248 366.747 220.425 366.397 220.512C366.047 220.6 365.68 220.596 365.331 220.5L357.931 218.61C355.52 219.776 353.014 220.736 350.441 221.48L345.291 229C345.106 229.297 344.85 229.543 344.546 229.718C344.243 229.892 343.901 229.989 343.551 230ZM327.461 225.23L342.461 225.74L347.461 218.55C347.738 218.13 348.163 217.83 348.651 217.71C351.465 216.94 354.196 215.892 356.801 214.58C357.256 214.361 357.772 214.308 358.261 214.43L365.261 216.22L376.261 205.97L375.001 198.74C374.904 198.235 374.997 197.711 375.261 197.27C376.747 194.794 377.97 192.17 378.911 189.44C379.07 188.945 379.405 188.525 379.851 188.26L387.381 183.8L387.891 168.8L380.691 163.8C380.312 163.541 380.028 163.165 379.881 162.73C379.881 162.68 379.881 162.62 379.881 162.56C379.111 159.796 378.066 157.116 376.761 154.56C376.53 154.102 376.473 153.576 376.601 153.08L378.401 146L368.151 135L360.961 136.32C360.459 136.411 359.941 136.319 359.501 136.06C357.02 134.572 354.393 133.342 351.661 132.39C351.505 132.34 351.354 132.273 351.211 132.19C350.923 132.01 350.683 131.763 350.511 131.47L346.001 123.92L331.001 123.4L326.001 130.61C325.703 131.033 325.263 131.334 324.761 131.46C321.976 132.221 319.276 133.263 316.701 134.57C316.247 134.802 315.724 134.858 315.231 134.73L308.151 132.93L297.151 143.18L298.471 150.35C298.55 150.802 298.483 151.268 298.281 151.68L298.181 151.85C296.694 154.336 295.471 156.97 294.531 159.71C294.366 160.18 294.04 160.576 293.611 160.83L286.081 165.3L285.571 180.3L292.781 185.3C293.192 185.581 293.49 185.999 293.621 186.48C294.371 189.288 295.413 192.01 296.731 194.6C296.803 194.747 296.86 194.902 296.901 195.06C296.977 195.389 296.977 195.731 296.901 196.06L295.101 203.06L305.351 214.06L312.491 212.75C312.99 212.659 313.505 212.751 313.941 213.01C316.441 214.495 319.085 215.725 321.831 216.68C322.327 216.827 322.746 217.16 323.001 217.61L327.461 225.23ZM336.731 206.26C336.361 206.26 335.991 206.26 335.621 206.26C327.308 206.114 319.39 202.69 313.589 196.734C307.788 190.778 304.574 182.771 304.648 174.457C304.721 166.143 308.075 158.195 313.98 152.342C319.884 146.489 327.862 143.205 336.176 143.205C344.491 143.205 352.468 146.489 358.373 152.342C364.278 158.195 367.632 166.143 367.705 174.457C367.778 182.771 364.565 190.778 358.764 196.734C352.963 202.69 345.044 206.114 336.731 206.26ZM336.731 147.17C329.467 147.295 322.546 150.285 317.475 155.489C312.405 160.692 309.595 167.688 309.657 174.953C309.72 182.219 312.65 189.165 317.81 194.28C322.969 199.396 329.941 202.266 337.206 202.266C344.472 202.266 351.443 199.396 356.603 194.28C361.763 189.165 364.693 182.219 364.755 174.953C364.818 167.688 362.008 160.692 356.937 155.489C351.867 150.285 344.946 147.295 337.681 147.17H336.731Z" fill="#FDEEEE"/>
<path d="M383.44 105.32L376.26 103.4L374.34 96.2199L377.15 93.4199L380.11 99.5499L386.25 102.52L383.44 105.32Z" fill="#FDEEEE"/>
<path d="M383.878 100.52C384.189 100.209 384.435 99.8404 384.603 99.4346C384.772 99.0288 384.858 98.5939 384.858 98.1547C384.858 97.7155 384.772 97.2805 384.603 96.8748C384.435 96.469 384.189 96.1003 383.878 95.7897C383.568 95.4791 383.199 95.2327 382.793 95.0647C382.388 94.8966 381.953 94.8101 381.513 94.8101C381.074 94.8101 380.639 94.8966 380.234 95.0647C379.828 95.2327 379.459 95.4791 379.148 95.7897L382.718 90.4297L387.498 92.8497L388.548 97.8497L383.878 100.52Z" fill="#FDEEEE"/>
<path d="M376.578 94.0002L381.838 88.7402L388.998 90.6502L390.928 97.8202L385.668 103.08L378.498 101.15L376.578 94.0002ZM386.128 98.3002C386.596 97.8316 386.915 97.2347 387.044 96.5849C387.173 95.9352 387.106 95.2618 386.853 94.6499C386.599 94.0379 386.17 93.5149 385.619 93.147C385.068 92.779 384.421 92.5826 383.758 92.5826C383.096 92.5826 382.448 92.779 381.897 93.147C381.347 93.5149 380.917 94.0379 380.663 94.6499C380.41 95.2618 380.343 95.9352 380.472 96.5849C380.601 97.2347 380.92 97.8316 381.388 98.3002C382.022 98.9217 382.875 99.2682 383.762 99.2644C384.65 99.2607 385.5 98.907 386.128 98.2802V98.3002Z" fill="#FCDEDE"/>
<path d="M90.2209 296.71L94.0709 295.67L95.1009 291.82L93.6009 290.32L92.0109 293.61L88.7109 295.2L90.2209 296.71Z" fill="#FDEEEE"/>
<path d="M90.0014 294.13C89.7005 293.786 89.5415 293.341 89.5567 292.884C89.5718 292.428 89.7599 291.994 90.0829 291.671C90.4058 291.348 90.8395 291.16 91.2961 291.145C91.7526 291.13 92.1978 291.289 92.5414 291.59L90.6314 288.72L88.0014 290L87.4414 292.7L90.0014 294.13Z" fill="#FDEEEE"/>
<path d="M93.9005 290.62L91.0805 287.8L87.2305 288.8L86.2305 292.65L89.0005 295.5L92.8505 294.5L93.9005 290.62ZM88.7805 292.93C88.5951 292.767 88.445 292.569 88.3395 292.346C88.234 292.123 88.1754 291.881 88.1672 291.635C88.159 291.389 88.2015 291.144 88.292 290.914C88.3826 290.685 88.5192 290.477 88.6934 290.303C88.8677 290.129 89.0758 289.992 89.305 289.901C89.5342 289.811 89.7795 289.768 90.0258 289.777C90.2721 289.785 90.5141 289.843 90.7368 289.949C90.9595 290.054 91.1581 290.204 91.3205 290.39C91.6214 290.733 91.7803 291.179 91.7652 291.635C91.7501 292.092 91.562 292.525 91.239 292.848C90.916 293.171 90.4823 293.359 90.0258 293.375C89.5693 293.39 89.1241 293.231 88.7805 292.93Z" fill="#FCDEDE"/>
<path d="M76.3616 85.6603L79.5616 88.8603C79.9618 89.2536 80.5005 89.4739 81.0616 89.4739C81.6227 89.4739 82.1614 89.2536 82.5616 88.8603C82.9526 88.4588 83.1713 87.9206 83.1713 87.3603C83.1713 86.7999 82.9526 86.2617 82.5616 85.8603L79.3716 82.6702C78.9702 82.2793 78.432 82.0605 77.8716 82.0605C77.3113 82.0605 76.7731 82.2793 76.3716 82.6702C75.98 83.0687 75.7597 83.6045 75.7578 84.1632C75.756 84.7219 75.9727 85.2592 76.3616 85.6603Z" fill="#FCDEDE"/>
<path d="M74.1092 77.7095C74.9443 77.4774 75.8289 77.494 76.6546 77.7576C77.4802 78.0211 78.211 78.5201 78.7571 79.1931C79.3031 79.8662 79.6408 80.684 79.7285 81.5463C79.8163 82.4085 79.6504 83.2776 79.2511 84.0469C78.8518 84.8161 78.2366 85.4521 77.481 85.8766C76.7253 86.3011 75.8622 86.4957 74.9975 86.4365C74.1328 86.3773 73.3043 86.0669 72.6135 85.5434C71.9228 85.0199 71.4 84.306 71.1092 83.4895C70.9247 82.9131 70.8559 82.3059 70.907 81.7028C70.958 81.0997 71.1279 80.5126 71.4067 79.9754C71.6855 79.4382 72.0678 78.9614 72.5317 78.5725C72.9955 78.1837 73.5316 77.8904 74.1092 77.7095Z" fill="#FDEEEE"/>
<path d="M70.6306 82.9548L71.0938 84.2441L80.599 80.8295L80.1359 79.5402L70.6306 82.9548Z" fill="#FCDEDE"/>
<path d="M249.999 427.56C357.082 427.56 443.889 422.492 443.889 416.24C443.889 409.988 357.082 404.92 249.999 404.92C142.917 404.92 56.1094 409.988 56.1094 416.24C56.1094 422.492 142.917 427.56 249.999 427.56Z" fill="#FCDEDE"/>
<path d="M222.449 304.84C223.839 282.44 221.289 241.71 263.399 247.11C308.529 252.88 295.619 305.66 295.619 305.66L222.449 304.84Z" fill="#8F3535"/>
<path d="M251.509 291.38C261.66 291.38 269.889 283.151 269.889 273C269.889 262.849 261.66 254.62 251.509 254.62C241.358 254.62 233.129 262.849 233.129 273C233.129 283.151 241.358 291.38 251.509 291.38Z" fill="white"/>
<path d="M253.93 254.65C245.22 253.17 235.93 259.58 235 266.08L269.51 269.26C268.29 261.85 260.83 255.83 253.93 254.65Z" fill="#8F3535"/>
<path d="M265.581 272.54C265.331 277.35 262.711 281.12 259.731 280.96C256.751 280.8 254.531 276.79 254.731 271.96C254.931 267.13 257.601 263.38 260.581 263.54C263.561 263.7 265.821 267.74 265.581 272.54Z" fill="#8F3535"/>
<path d="M251.509 292.38C247.676 292.38 243.929 291.244 240.742 289.114C237.555 286.985 235.071 283.958 233.604 280.417C232.137 276.875 231.754 272.979 232.501 269.219C233.249 265.46 235.095 262.007 237.805 259.296C240.516 256.586 243.969 254.74 247.728 253.993C251.487 253.245 255.384 253.629 258.925 255.095C262.467 256.562 265.493 259.046 267.623 262.233C269.752 265.42 270.889 269.167 270.889 273C270.884 278.138 268.84 283.065 265.207 286.698C261.573 290.331 256.647 292.375 251.509 292.38ZM251.509 255.63C248.071 255.63 244.71 256.65 241.852 258.56C238.994 260.47 236.766 263.185 235.451 266.361C234.136 269.538 233.792 273.033 234.464 276.404C235.135 279.776 236.791 282.873 239.223 285.303C241.655 287.733 244.752 289.388 248.124 290.057C251.496 290.727 254.991 290.381 258.167 289.064C261.342 287.747 264.056 285.518 265.965 282.659C267.873 279.799 268.891 276.438 268.889 273C268.884 268.393 267.05 263.977 263.792 260.72C260.533 257.463 256.116 255.633 251.509 255.63Z" fill="#EE5858"/>
<path opacity="0.3" d="M290.489 304.28H290.369C290.304 304.266 290.244 304.239 290.19 304.201C290.136 304.163 290.091 304.114 290.056 304.058C290.022 304.002 289.999 303.94 289.989 303.875C289.979 303.81 289.982 303.743 289.999 303.68C289.999 303.55 293.219 289.99 289.909 276.28C289.877 276.147 289.899 276.007 289.97 275.891C290.042 275.775 290.156 275.692 290.289 275.66C290.421 275.628 290.561 275.65 290.677 275.721C290.794 275.793 290.877 275.907 290.909 276.04C294.279 290.04 291.029 303.78 290.999 303.91C290.969 304.021 290.902 304.118 290.809 304.185C290.716 304.253 290.603 304.286 290.489 304.28Z" fill="white"/>
<path opacity="0.3" d="M287.702 268.759C287.606 268.758 287.512 268.731 287.431 268.679C287.35 268.628 287.284 268.556 287.242 268.469C285.999 265.722 284.406 263.148 282.502 260.809C282.419 260.707 282.38 260.576 282.393 260.445C282.406 260.314 282.471 260.193 282.572 260.109C282.623 260.067 282.682 260.035 282.745 260.015C282.809 259.996 282.876 259.989 282.942 259.996C283.008 260.002 283.072 260.022 283.13 260.053C283.189 260.085 283.24 260.128 283.282 260.179C285.233 262.585 286.869 265.23 288.152 268.049C288.181 268.108 288.197 268.172 288.2 268.238C288.204 268.303 288.194 268.369 288.171 268.43C288.149 268.492 288.114 268.548 288.07 268.596C288.025 268.644 287.972 268.683 287.912 268.709C287.846 268.74 287.775 268.757 287.702 268.759Z" fill="white"/>
<path d="M128.732 409.92H128.362C127.036 409.882 125.779 409.32 124.867 408.356C123.956 407.392 123.465 406.106 123.502 404.78C123.539 403.453 124.101 402.196 125.065 401.285C126.029 400.374 127.316 399.882 128.642 399.92H128.732C131.622 399.92 138.572 396.41 153.112 373.49C153.498 372.881 154.011 372.363 154.616 371.971C155.221 371.579 155.903 371.322 156.616 371.219C157.33 371.115 158.057 371.167 158.748 371.371C159.44 371.575 160.079 371.926 160.622 372.4C172.041 382.216 184.494 390.759 197.762 397.88C198.376 398.159 198.927 398.559 199.382 399.057C199.837 399.555 200.187 400.14 200.41 400.776C200.633 401.413 200.726 402.088 200.681 402.761C200.636 403.434 200.456 404.091 200.151 404.693C199.846 405.295 199.422 405.828 198.905 406.262C198.388 406.695 197.789 407.02 197.144 407.215C196.498 407.411 195.82 407.475 195.149 407.401C194.479 407.328 193.83 407.12 193.242 406.79C180.911 400.237 169.254 392.486 158.442 383.65C146.252 402 137.212 409.92 128.732 409.92Z" fill="#8F3535"/>
<path d="M159.67 371.5H159.24C158.454 371.386 157.745 370.966 157.269 370.33C156.793 369.695 156.588 368.896 156.7 368.11C157.41 363.11 156.53 344.48 150.22 329.98C149.94 329.339 149.892 328.621 150.086 327.949C150.28 327.277 150.702 326.694 151.28 326.3C164.98 316.97 194.16 315.85 195.4 315.81C195.794 315.797 196.186 315.862 196.555 316C196.924 316.139 197.262 316.349 197.55 316.618C197.838 316.888 198.07 317.211 198.233 317.57C198.396 317.929 198.486 318.316 198.5 318.71C198.513 319.104 198.448 319.497 198.309 319.866C198.171 320.235 197.961 320.573 197.692 320.861C197.422 321.149 197.099 321.381 196.74 321.544C196.381 321.707 195.994 321.797 195.6 321.81C195.33 321.81 169.82 322.81 156.72 330.01C162.3 344.45 163.57 362.44 162.64 368.95C162.532 369.66 162.173 370.308 161.628 370.776C161.083 371.244 160.388 371.501 159.67 371.5Z" fill="#8F3535"/>
<path d="M164.712 367.619C162.712 362.909 153.712 363.439 148.442 367.479C145.622 369.629 141.802 376.119 141.442 378.479C141.322 379.04 141.34 379.622 141.494 380.174C141.649 380.726 141.935 381.233 142.328 381.65C142.722 382.067 143.211 382.382 143.753 382.569C144.295 382.755 144.875 382.807 145.442 382.719C148.892 382.419 153.622 377.409 153.622 377.409C150.472 380.499 154.542 382.679 160.622 378.209C163.942 375.719 166.942 372.889 164.712 367.619Z" fill="#EE5858"/>
<path d="M336.71 306.16C336.663 306.17 336.616 306.17 336.57 306.16C336.506 306.142 336.446 306.113 336.394 306.072C336.342 306.031 336.299 305.98 336.267 305.922C336.236 305.864 336.216 305.8 336.209 305.735C336.203 305.669 336.21 305.603 336.23 305.54C337.56 300.9 339.01 298.07 340.92 296.54C340.62 295.464 340.676 294.321 341.08 293.28C341.546 292.064 342.368 291.019 343.44 290.28C343.148 289.965 342.942 289.582 342.838 289.166C342.735 288.749 342.739 288.314 342.85 287.9C343.212 286.647 343.961 285.541 344.99 284.74C344.619 284.325 344.415 283.786 344.42 283.23C344.42 280.23 349.93 275.71 356.18 274.85C356.312 274.831 356.447 274.866 356.554 274.947C356.661 275.027 356.731 275.147 356.75 275.28C356.768 275.412 356.733 275.547 356.653 275.654C356.572 275.761 356.452 275.831 356.32 275.85C350.38 276.66 345.4 280.96 345.42 283.23C345.418 283.568 345.547 283.894 345.78 284.14C347.125 283.227 348.638 282.592 350.231 282.271C351.825 281.95 353.466 281.95 355.06 282.27C358.13 282.86 359.38 283.51 359.24 284.44C358.96 286.19 352.43 286.56 348.05 286.04C347.265 285.968 346.501 285.748 345.8 285.39C344.857 286.061 344.155 287.018 343.8 288.12C343.714 288.411 343.714 288.721 343.801 289.012C343.888 289.303 344.058 289.563 344.29 289.76C346.15 288.76 348.76 288.4 352.21 289.16C356.74 290.16 356.91 290.71 357.02 291.04C357.055 291.156 357.058 291.28 357.028 291.398C356.998 291.516 356.936 291.624 356.85 291.71C355.9 292.71 348.95 292.24 345.46 291.38C345.038 291.284 344.631 291.132 344.25 290.93C343.217 291.557 342.422 292.511 341.99 293.64C341.701 294.37 341.621 295.166 341.76 295.94C341.938 295.833 342.121 295.736 342.31 295.65C344.38 294.65 346.88 294.83 349.97 296.15C351.97 297.02 352.97 297.8 353.07 298.59C353.074 298.792 353.023 298.992 352.923 299.168C352.822 299.345 352.676 299.49 352.5 299.59C350.97 300.59 345.63 300.45 342.85 298.97C342.21 298.622 341.678 298.107 341.31 297.48C339.68 298.98 338.36 301.65 337.16 305.84C337.123 305.931 337.061 306.009 336.982 306.066C336.902 306.123 336.807 306.155 336.71 306.16ZM342.13 296.83C342.408 297.347 342.832 297.771 343.35 298.05C345.61 299.25 350.05 299.52 351.71 298.85C352.05 298.71 352.1 298.6 352.1 298.6C352.1 298.6 352.05 298.04 349.6 296.99C346.8 295.79 344.6 295.62 342.77 296.47C342.549 296.576 342.335 296.696 342.13 296.83ZM345.47 290.26L345.72 290.33C348.976 291.08 352.327 291.333 355.66 291.08C354.478 290.641 353.26 290.307 352.02 290.08C349.866 289.496 347.588 289.559 345.47 290.26ZM346.73 284.64C347.191 284.805 347.671 284.913 348.16 284.96C353.16 285.55 357.55 284.86 358.16 284.23C357.99 284.08 357.32 283.65 354.84 283.18C352.049 282.623 349.151 283.145 346.73 284.64Z" fill="#8F3535"/>
<path d="M206.528 408.249C207.188 408.039 206.968 407.399 206.228 407.399H192.688C166.908 404.669 148.898 408.329 160.248 409.189C171.598 410.049 159.448 409.869 151.158 413.009C142.868 416.149 212.808 416.939 219.158 413.009C224.998 409.389 197.388 411.179 206.528 408.249Z" fill="#8F3535"/>
<path d="M303.471 412.24L185.671 408.33L180.781 294.11L319.891 297.22L303.471 412.24Z" fill="#EE5858"/>
<path d="M222.449 410.05C222.323 410.05 222.201 410.003 222.109 409.918C222.016 409.832 221.959 409.715 221.949 409.59L212.509 294.87C212.5 294.738 212.544 294.607 212.63 294.507C212.715 294.406 212.837 294.342 212.969 294.33C213.1 294.324 213.229 294.368 213.329 294.453C213.43 294.539 213.494 294.659 213.509 294.79L222.999 409.51C223.004 409.575 222.997 409.641 222.977 409.704C222.956 409.767 222.924 409.825 222.881 409.875C222.838 409.926 222.786 409.967 222.727 409.997C222.669 410.027 222.605 410.045 222.539 410.05H222.449Z" fill="#8F3535"/>
<path d="M303.469 412.24L335.129 407.42L345.099 301.21L319.889 297.22L303.469 412.24Z" fill="#EE5858"/>
<path opacity="0.2" d="M303.469 412.24L335.129 407.42L345.099 301.21L319.889 297.22L303.469 412.24Z" fill="#191C1F"/>
<path d="M195.731 386.32L192.831 318.45C192.76 316.774 193.033 315.1 193.634 313.533C194.235 311.966 195.151 310.539 196.325 309.341C197.5 308.142 198.908 307.197 200.462 306.564C202.016 305.931 203.684 305.623 205.361 305.66L293.421 307.66C295.155 307.699 296.861 308.106 298.427 308.852C299.992 309.599 301.382 310.669 302.503 311.992C303.625 313.315 304.453 314.861 304.934 316.527C305.415 318.194 305.536 319.943 305.291 321.66L295.531 390C295.109 392.993 293.597 395.725 291.285 397.672C288.972 399.619 286.023 400.644 283.001 400.55L207.611 398.05C204.517 397.955 201.572 396.693 199.369 394.517C197.166 392.342 195.866 389.414 195.731 386.32Z" fill="#8F3535"/>
<path d="M205.249 326.49L218.869 326.92L218.759 330.43L210.229 330.16L210.149 332.78L218.059 333.03L217.949 336.39L210.039 336.13L209.939 339.38L218.709 339.66L218.589 343.38L204.719 342.94L205.249 326.49Z" fill="white"/>
<path d="M221.398 343.47L221.918 327.02L230.398 327.29C231.614 327.283 232.824 327.459 233.988 327.81C234.814 328.086 235.52 328.636 235.988 329.37C236.336 329.903 236.57 330.503 236.676 331.132C236.781 331.76 236.756 332.403 236.602 333.021C236.449 333.64 236.169 334.22 235.781 334.725C235.393 335.231 234.906 335.651 234.348 335.96C233.78 336.252 233.169 336.455 232.538 336.56C233.003 336.709 233.445 336.925 233.848 337.2C234.14 337.47 234.402 337.772 234.628 338.1C234.886 338.411 235.114 338.746 235.308 339.1L237.618 343.95L231.878 343.76L229.318 338.65C229.115 338.162 228.816 337.719 228.438 337.35C228.08 337.09 227.651 336.944 227.208 336.93H226.758L226.548 343.6L221.398 343.47ZM226.818 333.85L228.958 333.92C229.413 333.892 229.864 333.828 230.308 333.73C230.643 333.679 230.947 333.504 231.158 333.24C231.375 332.973 231.498 332.643 231.508 332.3C231.527 332.071 231.495 331.841 231.414 331.626C231.332 331.412 231.204 331.218 231.038 331.06C230.48 330.699 229.821 330.527 229.158 330.57L226.918 330.5L226.818 333.85Z" fill="white"/>
<path d="M239.281 344L239.801 327.55L248.271 327.82C249.487 327.813 250.697 327.988 251.861 328.34C252.688 328.613 253.395 329.164 253.861 329.9C254.369 330.701 254.607 331.644 254.541 332.59C254.544 333.388 254.331 334.172 253.924 334.858C253.518 335.545 252.933 336.109 252.231 336.49C251.662 336.781 251.052 336.983 250.421 337.09C250.883 337.239 251.321 337.455 251.721 337.73C252.02 337.993 252.286 338.292 252.511 338.62C252.767 338.933 252.994 339.267 253.191 339.62L255.501 344.46L249.761 344.28L247.201 339.17C246.997 338.683 246.698 338.241 246.321 337.87C245.964 337.6 245.529 337.453 245.081 337.45H244.641L244.421 344.13L239.281 344ZM244.691 334.38L246.841 334.44C247.296 334.423 247.748 334.362 248.191 334.26C248.524 334.21 248.824 334.035 249.031 333.77C249.255 333.508 249.379 333.175 249.381 332.83C249.403 332.602 249.373 332.372 249.293 332.157C249.214 331.942 249.086 331.748 248.921 331.59C248.364 331.22 247.698 331.048 247.031 331.1L244.801 331.03L244.691 334.38Z" fill="white"/>
<path d="M256.319 336.36C256.241 335.212 256.419 334.061 256.84 332.99C257.26 331.919 257.913 330.955 258.75 330.166C259.588 329.377 260.59 328.784 261.684 328.428C262.778 328.073 263.937 327.964 265.079 328.11C266.23 328.072 267.378 328.265 268.453 328.679C269.529 329.093 270.51 329.719 271.339 330.52C272.078 331.371 272.637 332.365 272.981 333.439C273.325 334.514 273.446 335.647 273.339 336.77C273.347 338.403 272.963 340.015 272.219 341.47C271.544 342.66 270.536 343.626 269.319 344.25C267.884 344.936 266.295 345.239 264.709 345.13C263.126 345.143 261.561 344.801 260.129 344.13C258.909 343.468 257.913 342.459 257.269 341.23C256.512 339.724 256.184 338.039 256.319 336.36ZM261.399 336.54C261.249 337.8 261.534 339.074 262.209 340.15C262.524 340.502 262.907 340.787 263.335 340.987C263.762 341.188 264.226 341.301 264.698 341.318C265.17 341.336 265.641 341.259 266.083 341.091C266.525 340.922 266.928 340.667 267.269 340.34C268.01 339.217 268.361 337.882 268.269 336.54C268.403 335.334 268.109 334.12 267.439 333.11C267.135 332.76 266.761 332.48 266.34 332.289C265.919 332.097 265.461 331.999 264.999 332C264.532 331.966 264.064 332.039 263.629 332.212C263.194 332.385 262.804 332.654 262.489 333C261.731 334.02 261.347 335.27 261.399 336.54Z" fill="white"/>
<path d="M275.91 345.21L276.43 328.75L284.9 329.02C286.116 329.018 287.325 329.193 288.49 329.54C289.313 329.821 290.018 330.37 290.49 331.1C290.995 331.902 291.233 332.844 291.17 333.79C291.175 334.59 290.963 335.376 290.556 336.064C290.149 336.753 289.563 337.318 288.86 337.7C288.288 337.983 287.679 338.182 287.05 338.29C287.513 338.442 287.951 338.661 288.35 338.94C288.649 339.203 288.914 339.502 289.14 339.83C289.398 340.141 289.625 340.476 289.82 340.83L292.13 345.68L286.39 345.5L283.83 340.38C283.627 339.895 283.327 339.456 282.95 339.09C282.591 338.822 282.158 338.671 281.71 338.66H281.27L281.05 345.34L275.91 345.21ZM281.32 335.58L283.47 335.65C283.925 335.633 284.377 335.572 284.82 335.47C285.151 335.417 285.451 335.242 285.66 334.98C285.896 334.701 286.021 334.345 286.01 333.98C286.032 333.754 286.002 333.525 285.922 333.312C285.842 333.099 285.715 332.907 285.55 332.75C284.992 332.38 284.327 332.208 283.66 332.26L281.43 332.19L281.32 335.58Z" fill="white"/>
<path d="M284 373.16C283.812 373.164 283.626 373.127 283.453 373.053C283.281 372.979 283.126 372.869 283 372.73L274.44 363.36L265.2 371.8C264.944 372.035 264.605 372.158 264.258 372.143C263.911 372.128 263.585 371.976 263.35 371.72L254.79 362.35L245.55 370.79C245.294 371.025 244.955 371.148 244.608 371.133C244.261 371.118 243.935 370.966 243.7 370.71L235.13 361.34L225.9 369.78C225.765 369.902 225.607 369.995 225.435 370.054C225.263 370.112 225.081 370.135 224.9 370.12C224.552 370.1 224.226 369.946 223.99 369.69L215.43 360.33L206.2 368.76C205.942 368.995 205.602 369.119 205.253 369.104C204.905 369.089 204.576 368.937 204.34 368.68C204.223 368.553 204.133 368.405 204.074 368.243C204.015 368.081 203.989 367.909 203.998 367.736C204.006 367.564 204.049 367.395 204.123 367.24C204.197 367.084 204.301 366.945 204.43 366.83L214.63 357.5C214.888 357.265 215.228 357.142 215.576 357.156C215.925 357.171 216.253 357.324 216.49 357.58L225.05 366.95L234.28 358.51C234.542 358.28 234.881 358.159 235.23 358.17C235.578 358.189 235.905 358.343 236.14 358.6L244.7 367.97L253.94 359.53C254.066 359.413 254.214 359.322 254.376 359.262C254.538 359.203 254.709 359.176 254.882 359.183C255.054 359.191 255.223 359.232 255.379 359.306C255.535 359.379 255.674 359.482 255.79 359.61L264.35 368.98L273.59 360.54C273.846 360.306 274.185 360.182 274.531 360.197C274.878 360.212 275.205 360.364 275.44 360.62L285 371C285.171 371.191 285.282 371.428 285.321 371.681C285.36 371.934 285.324 372.193 285.218 372.427C285.112 372.66 284.94 372.857 284.724 372.995C284.508 373.132 284.256 373.203 284 373.2V373.16Z" fill="white"/>
<path d="M125.75 414.67L119.49 411.68L113.91 384.51L116.94 381.18L125.75 414.67Z" fill="#EE5858"/>
<path d="M125.751 414.67L134.061 409.81L126.941 387.43L116.941 381.18L125.751 414.67Z" fill="#EE5858"/>
<path opacity="0.2" d="M125.751 414.67L134.061 409.81L126.941 387.43L116.941 381.18L125.751 414.67Z" fill="#191C1F"/>
<path d="M261.998 419.61H261.308C259.982 419.574 258.725 419.013 257.812 418.05C256.9 417.087 256.407 415.801 256.443 414.475C256.479 413.149 257.04 411.891 258.003 410.979C258.966 410.067 260.252 409.574 261.578 409.61C269.278 409.86 285.578 405.13 294.898 396.09C295.461 395.538 296.146 395.127 296.898 394.89C312.688 390.15 318.558 399.72 318.798 400.13L310.198 405.22C310.228 405.284 310.265 405.344 310.308 405.4C310.218 405.27 307.978 402.4 300.858 404.16C289.168 414.82 271.228 419.61 261.998 419.61Z" fill="#8F3535"/>
<path d="M261.39 426.25L243.18 425.11L241.75 391.53L266.22 392.44L261.39 426.25Z" fill="#EE5858"/>
<path d="M261.391 426.25L265.651 422.01L268.291 401.08L266.221 392.44L261.391 426.25Z" fill="#EE5858"/>
<path opacity="0.2" d="M261.391 426.25L265.651 422.01L268.291 401.08L266.221 392.44L261.391 426.25Z" fill="#191C1F"/>
<path d="M366.91 413.54C366.257 413.539 365.621 413.325 365.1 412.93C354.7 405.03 340.65 391 335.26 377.47C335.18 377.274 335.122 377.069 335.09 376.86C332.46 361.22 329.95 328.31 329.84 326.92C329.811 326.526 329.859 326.13 329.983 325.755C330.106 325.379 330.302 325.032 330.56 324.733C331.08 324.128 331.82 323.755 332.615 323.695C333.411 323.635 334.198 323.894 334.803 324.415C335.407 324.935 335.781 325.674 335.84 326.47C335.84 326.8 338.41 360.03 340.97 375.54C346.35 388.7 360.97 402.21 368.75 408.15C369.251 408.53 369.62 409.058 369.805 409.659C369.99 410.26 369.981 410.904 369.78 411.5C369.578 412.095 369.195 412.613 368.684 412.979C368.173 413.345 367.559 413.541 366.93 413.54H366.91Z" fill="#8F3535"/>
<path d="M380.779 415.05C378.459 415.05 375.829 414 372.959 411.93C372.315 411.464 371.882 410.76 371.756 409.974C371.631 409.188 371.822 408.385 372.289 407.74C372.756 407.096 373.46 406.663 374.245 406.538C375.031 406.412 375.835 406.604 376.479 407.07C378.959 408.86 380.309 409.07 380.779 409.07C381.575 409.07 382.338 409.386 382.9 409.949C383.463 410.512 383.779 411.275 383.779 412.07C383.779 412.866 383.463 413.629 382.9 414.192C382.338 414.754 381.575 415.07 380.779 415.07V415.05Z" fill="#8F3535"/>
<path d="M373.801 411.84C377.011 402.31 390.171 404.19 394.711 405.61C398.589 406.735 402.308 408.348 405.781 410.41C408.231 412.01 408.271 414.7 405.001 416.23C401.001 418.11 390.841 416.44 390.841 416.44C396.081 418.73 390.841 422.44 381.631 418.8C378.641 417.62 372.671 415.34 373.801 411.84Z" fill="#EE5858"/>
<path d="M341.859 331C340.669 339.1 333.959 345.069 328.499 344.269C323.039 343.469 322.819 336.27 324.009 328.13C325.199 319.99 327.359 314.129 332.819 314.929C338.279 315.729 343.049 322.93 341.859 331Z" fill="#8F3535"/>
<path d="M209.879 298.7C210.331 298.7 210.699 298.332 210.699 297.88C210.699 297.427 210.331 297.06 209.879 297.06C209.426 297.06 209.059 297.427 209.059 297.88C209.059 298.332 209.426 298.7 209.879 298.7Z" fill="#8F3535"/>
<path d="M218.21 303.78C218.21 303.942 218.162 304.101 218.072 304.236C217.982 304.37 217.854 304.475 217.704 304.538C217.554 304.6 217.389 304.616 217.23 304.584C217.071 304.553 216.925 304.474 216.81 304.36C216.696 304.245 216.618 304.099 216.586 303.94C216.554 303.781 216.571 303.616 216.633 303.466C216.695 303.316 216.8 303.188 216.935 303.098C217.07 303.008 217.228 302.96 217.39 302.96C217.608 302.96 217.816 303.046 217.97 303.2C218.124 303.354 218.21 303.562 218.21 303.78Z" fill="#8F3535"/>
<path d="M219.128 400.68C219.128 400.843 219.08 401.001 218.99 401.136C218.9 401.271 218.772 401.376 218.622 401.438C218.472 401.5 218.307 401.516 218.148 401.485C217.989 401.453 217.843 401.375 217.728 401.26C217.614 401.146 217.536 400.999 217.504 400.84C217.472 400.681 217.489 400.516 217.551 400.367C217.613 400.217 217.718 400.089 217.853 399.999C217.988 399.908 218.146 399.86 218.308 399.86C218.526 399.86 218.734 399.947 218.888 400.101C219.042 400.254 219.128 400.463 219.128 400.68Z" fill="#8F3535"/>
<path d="M226.64 406.59C226.64 406.752 226.592 406.91 226.502 407.045C226.412 407.18 226.284 407.285 226.134 407.347C225.984 407.409 225.819 407.425 225.66 407.394C225.501 407.362 225.355 407.284 225.24 407.169C225.125 407.055 225.047 406.909 225.016 406.75C224.984 406.59 225 406.426 225.062 406.276C225.124 406.126 225.23 405.998 225.364 405.908C225.499 405.818 225.658 405.77 225.82 405.77C226.037 405.77 226.246 405.856 226.4 406.01C226.554 406.163 226.64 406.372 226.64 406.59Z" fill="#8F3535"/>
<path d="M82.5091 416.42C81.0694 416.352 79.6633 415.963 78.3945 415.279C77.1258 414.595 76.0269 413.635 75.179 412.47C75.1375 412.416 75.1073 412.355 75.0902 412.289C75.0732 412.223 75.0697 412.155 75.08 412.088C75.0903 412.021 75.1141 411.956 75.15 411.899C75.1859 411.841 75.2331 411.792 75.2888 411.753C75.3445 411.714 75.4076 411.687 75.474 411.674C75.5405 411.66 75.609 411.66 75.6755 411.674C75.7419 411.687 75.8049 411.715 75.8605 411.753C75.9161 411.792 75.9633 411.842 75.999 411.9C77.869 414.6 81.9991 416.03 83.7991 415.18C83.9793 415.103 84.14 414.987 84.269 414.84C83.3595 414.439 82.5626 413.821 81.9487 413.04C81.3348 412.259 80.9227 411.338 80.749 410.36C80.519 409.09 80.339 407.36 81.379 407.14C82.819 406.82 84.699 410.29 85.379 412.92C85.5022 413.355 85.5462 413.809 85.5091 414.26C86.0858 414.432 86.6925 414.479 87.289 414.4C87.5579 414.379 87.8194 414.303 88.057 414.175C88.2946 414.048 88.5031 413.872 88.669 413.66C88.0109 413.163 87.465 412.533 87.0669 411.811C86.6689 411.089 86.4277 410.291 86.359 409.47C85.979 406.73 86.269 406.26 86.569 406.02C86.6662 405.945 86.7823 405.899 86.9041 405.887C87.026 405.874 87.1489 405.896 87.2591 405.95C88.3291 406.4 89.6191 410.28 89.8691 412.48C89.899 412.709 89.899 412.941 89.8691 413.17C90.3002 413.335 90.7572 413.423 91.219 413.43C92.067 413.463 92.9057 413.243 93.629 412.8C93.489 412.71 93.3591 412.61 93.2291 412.51C92.2291 411.62 91.769 410.2 91.949 408.18C92.089 406.61 92.439 405.75 93.069 405.48C93.2723 405.398 93.4949 405.377 93.7097 405.42C93.9245 405.463 94.1223 405.567 94.279 405.72C94.9541 406.465 95.4586 407.349 95.7573 408.309C96.0561 409.269 96.142 410.283 96.0091 411.28C95.9222 411.695 95.7484 412.087 95.499 412.43C97.339 412.75 99.9191 412.23 102.149 411.68C102.215 411.664 102.283 411.661 102.35 411.672C102.416 411.682 102.48 411.706 102.538 411.741C102.595 411.777 102.645 411.823 102.685 411.878C102.725 411.932 102.753 411.994 102.769 412.06C102.785 412.125 102.787 412.193 102.777 412.26C102.766 412.327 102.743 412.391 102.707 412.448C102.672 412.506 102.626 412.556 102.571 412.596C102.517 412.635 102.455 412.664 102.389 412.68C99.679 413.35 96.759 413.9 94.699 413.3C93.6935 414.064 92.4621 414.472 91.199 414.46C90.6385 414.452 90.0836 414.347 89.559 414.15C89.3264 414.509 89.0143 414.811 88.6467 415.031C88.2792 415.251 87.866 415.384 87.4391 415.42C86.6874 415.516 85.9237 415.452 85.199 415.23C84.9657 415.623 84.6164 415.934 84.199 416.12C83.6627 416.336 83.0871 416.438 82.5091 416.42ZM81.649 408.14C81.5107 408.82 81.5382 409.523 81.7291 410.19C81.8701 410.989 82.2019 411.743 82.6963 412.387C83.1907 413.031 83.8331 413.547 84.569 413.89C84.5551 413.653 84.5148 413.418 84.449 413.19C83.669 410.33 82.169 408.36 81.649 408.14ZM87.219 407.27C87.2256 407.96 87.2824 408.648 87.389 409.33C87.4993 410.549 88.0378 411.69 88.9091 412.55C88.663 410.703 88.0907 408.916 87.219 407.27ZM93.5091 406.4C93.5091 406.4 93.129 406.59 92.989 408.26C92.849 409.93 93.139 411.08 93.919 411.75C94.1036 411.899 94.305 412.027 94.519 412.13C94.782 411.848 94.968 411.504 95.059 411.13C95.2372 409.556 94.8119 407.973 93.8691 406.7C93.6591 406.44 93.5391 406.4 93.5091 406.4Z" fill="#8F3535"/>
<path d="M228.869 423.98L231.579 419.28L228.869 414.58H225.969L227.609 419.28L225.969 423.98H228.869Z" fill="#8F3535"/>
<path d="M226.158 421.73C225.824 421.751 225.489 421.704 225.174 421.591C224.858 421.478 224.57 421.301 224.325 421.072C224.081 420.843 223.887 420.566 223.753 420.259C223.62 419.951 223.552 419.62 223.552 419.285C223.552 418.95 223.62 418.619 223.753 418.311C223.887 418.004 224.081 417.727 224.325 417.498C224.57 417.269 224.858 417.092 225.174 416.979C225.489 416.866 225.824 416.819 226.158 416.84L221.558 415.92L220.328 419.64L222.388 422.78L226.158 421.73Z" fill="#8F3535"/>
<path d="M226.558 414.58H221.128L218.418 419.28L221.128 423.98H226.558L229.268 419.28L226.558 414.58ZM223.848 421.73C223.363 421.732 222.888 421.59 222.484 421.322C222.08 421.054 221.764 420.672 221.577 420.225C221.39 419.777 221.34 419.284 221.434 418.808C221.527 418.332 221.76 417.895 222.102 417.551C222.444 417.208 222.881 416.973 223.356 416.878C223.832 416.783 224.325 416.831 224.773 417.016C225.221 417.201 225.605 417.515 225.874 417.918C226.144 418.321 226.288 418.795 226.288 419.28C226.288 419.928 226.031 420.55 225.574 421.009C225.117 421.468 224.496 421.727 223.848 421.73Z" fill="#EE5858"/>
<path d="M417.889 414.259L415.879 410.769L417.889 407.279H420.039L418.829 410.769L420.039 414.259H417.889Z" fill="#EE5858"/>
<path d="M419.898 412.589C420.148 412.608 420.399 412.575 420.635 412.492C420.871 412.409 421.088 412.278 421.272 412.108C421.455 411.938 421.601 411.731 421.702 411.502C421.802 411.272 421.853 411.025 421.853 410.774C421.853 410.524 421.802 410.276 421.702 410.047C421.601 409.817 421.455 409.611 421.272 409.441C421.088 409.27 420.871 409.14 420.635 409.057C420.399 408.974 420.148 408.941 419.898 408.959L423.318 408.279L424.228 411.039L422.708 413.369L419.898 412.589Z" fill="#EE5858"/>
<path d="M419.609 407.279H423.609L425.609 410.769L423.609 414.259H419.609L417.609 410.769L419.609 407.279ZM421.609 412.589C421.97 412.591 422.323 412.486 422.623 412.287C422.924 412.089 423.159 411.805 423.298 411.473C423.437 411.14 423.475 410.774 423.406 410.42C423.337 410.067 423.164 409.741 422.91 409.486C422.656 409.23 422.331 409.056 421.978 408.985C421.625 408.914 421.258 408.949 420.925 409.087C420.592 409.224 420.307 409.458 420.107 409.757C419.906 410.057 419.799 410.409 419.799 410.769C419.798 411.009 419.844 411.246 419.935 411.467C420.026 411.689 420.16 411.89 420.329 412.059C420.499 412.228 420.7 412.362 420.921 412.453C421.143 412.544 421.38 412.591 421.619 412.589H421.609Z" fill="#8F3535"/>
<path d="M342.999 418.9H347.519C348.085 418.897 348.627 418.671 349.026 418.27C349.425 417.869 349.649 417.326 349.649 416.76C349.649 416.194 349.425 415.651 349.026 415.25C348.627 414.849 348.085 414.623 347.519 414.62H342.999C342.432 414.62 341.888 414.846 341.486 415.247C341.085 415.648 340.859 416.193 340.859 416.76C340.859 417.328 341.085 417.872 341.486 418.273C341.888 418.675 342.432 418.9 342.999 418.9Z" fill="#8F3535"/>
<path d="M335.728 414.86C336.147 414.097 336.781 413.474 337.55 413.067C338.32 412.659 339.192 412.486 340.058 412.569C340.925 412.651 341.749 412.986 342.428 413.531C343.107 414.076 343.611 414.807 343.879 415.636C344.147 416.464 344.167 417.353 343.936 418.192C343.705 419.031 343.234 419.785 342.58 420.359C341.926 420.934 341.118 421.305 340.255 421.426C339.393 421.547 338.515 421.412 337.728 421.04C336.646 420.482 335.829 419.52 335.454 418.362C335.08 417.204 335.178 415.946 335.728 414.86Z" fill="#EE5858"/>
<path d="M336.948 421.039L338.188 421.623L342.494 412.487L341.255 411.903L336.948 421.039Z" fill="#8F3535"/>
</svg>
