<svg width="16" height="17" viewBox="0 0 16 17" fill="none" xmlns="http://www.w3.org/2000/svg">
<g clip-path="url(#clip0_278_4668)">
<path fill-rule="evenodd" clip-rule="evenodd" d="M8 0.5C12.4183 0.5 16 4.08173 16 8.5C16 12.9183 12.4183 16.5 8 16.5C3.58173 16.5 0 12.9183 0 8.5C0 4.08173 3.58173 0.5 8 0.5Z" fill="white"/>
<path d="M9.04022 16.433V10.2524H10.7837L11.0148 8.0771H9.04022L9.04315 6.98827C9.04315 6.42091 9.09708 6.11705 9.9125 6.11705H11.0026V3.94141H9.2587C7.16402 3.94141 6.42685 4.9966 6.42685 6.77136V8.07726H5.12109V10.2527H6.42685V16.3453C6.93555 16.4466 7.46145 16.5001 7.99992 16.5001C8.34777 16.5001 8.69526 16.4777 9.04022 16.433Z" fill="#1B6392"/>
</g>
<defs>
<clipPath id="clip0_278_4668">
<rect width="16" height="16" fill="white" transform="translate(0 0.5)"/>
</clipPath>
</defs>
</svg>
