<svg width="56" height="56" viewBox="0 0 56 56" fill="none" xmlns="http://www.w3.org/2000/svg">
<rect width="56" height="56" rx="2" fill="white"/>
<rect width="32" height="32" transform="translate(12 12)" fill="white"/>
<path opacity="0.2" d="M21.2377 25.9248L17.3127 30.6248C17.2138 30.7402 17.144 30.8776 17.1092 31.0255C17.0744 31.1734 17.0756 31.3275 17.1127 31.4748L18.6502 38.4373C18.6873 38.6028 18.7659 38.7561 18.8786 38.8829C18.9912 39.0097 19.1343 39.1057 19.2943 39.162C19.4543 39.2182 19.626 39.2328 19.7932 39.2045C19.9604 39.1761 20.1177 39.1057 20.2502 38.9998L24.0002 35.9998C21.8002 32.1748 21.0877 28.8123 21.2377 25.9248Z" fill="white"/>
<path opacity="0.2" d="M34.6883 25.8379L38.6133 30.5504C38.7122 30.6658 38.7819 30.8031 38.8167 30.9511C38.8515 31.099 38.8503 31.253 38.8133 31.4004L37.2758 38.3504C37.2403 38.5169 37.163 38.6717 37.051 38.8C36.939 38.9282 36.7961 39.0258 36.6359 39.0834C36.4756 39.141 36.3033 39.1567 36.1353 39.129C35.9673 39.1014 35.8091 39.0313 35.6758 38.9254L31.9258 35.9254C34.1258 32.0879 34.8383 28.7254 34.6883 25.8379Z" fill="white"/>
<path d="M30 40H26" stroke="#B9E2FD" stroke-width="2" stroke-linecap="round" stroke-linejoin="round"/>
<path d="M27.3749 14.4747C24.9999 16.3747 17.0624 23.9747 23.9999 35.9997H31.9999C38.7999 23.9747 30.9749 16.3872 28.6249 14.4747C28.4496 14.3283 28.2284 14.248 27.9999 14.248C27.7715 14.248 27.5503 14.3283 27.3749 14.4747Z" stroke="#B9E2FD" stroke-width="2" stroke-linecap="round" stroke-linejoin="round"/>
<path d="M21.2377 25.9248L17.3127 30.6248C17.2138 30.7402 17.144 30.8776 17.1092 31.0255C17.0744 31.1734 17.0756 31.3275 17.1127 31.4748L18.6502 38.4373C18.6873 38.6028 18.7659 38.7561 18.8786 38.8829C18.9912 39.0097 19.1343 39.1057 19.2943 39.162C19.4543 39.2182 19.626 39.2328 19.7932 39.2045C19.9604 39.1761 20.1177 39.1057 20.2502 38.9998L24.0002 35.9998" stroke="#B9E2FD" stroke-width="2" stroke-linecap="round" stroke-linejoin="round"/>
<path d="M34.6875 25.8252L38.6875 30.6252C38.7864 30.7406 38.8561 30.878 38.8909 31.0259C38.9258 31.1738 38.9246 31.3278 38.8875 31.4752L37.35 38.4377C37.3129 38.6032 37.2343 38.7565 37.1216 38.8833C37.009 39.0101 36.8659 39.1061 36.7059 39.1623C36.5459 39.2186 36.3742 39.2332 36.207 39.2049C36.0398 39.1765 35.8825 39.1061 35.75 39.0002L32 36.0002" stroke="#B9E2FD" stroke-width="2" stroke-linecap="round" stroke-linejoin="round"/>
<path d="M28 25.5C28.8284 25.5 29.5 24.8284 29.5 24C29.5 23.1716 28.8284 22.5 28 22.5C27.1716 22.5 26.5 23.1716 26.5 24C26.5 24.8284 27.1716 25.5 28 25.5Z" fill="white"/>
</svg>
