<svg width="57" height="56" viewBox="0 0 57 56" fill="none" xmlns="http://www.w3.org/2000/svg">
<rect x="0.5" width="56" height="56" rx="2" fill="white"/>
<path opacity="0.2" d="M16.6375 21.3242C16.5469 21.4798 16.4995 21.6567 16.5 21.8367V34.1617C16.501 34.3397 16.5488 34.5144 16.6388 34.668C16.7288 34.8216 16.8577 34.9488 17.0125 35.0367L28.0125 41.2242C28.1608 41.309 28.3292 41.3521 28.5 41.3492L28.6125 27.9992L16.6375 21.3242Z" fill="#2DB324"/>
<path d="M40.5 34.1627V21.8377C40.499 21.6596 40.4512 21.485 40.3612 21.3314C40.2712 21.1778 40.1423 21.0506 39.9875 20.9627L28.9875 14.7752C28.8393 14.6896 28.6711 14.6445 28.5 14.6445C28.3289 14.6445 28.1607 14.6896 28.0125 14.7752L17.0125 20.9627C16.8577 21.0506 16.7288 21.1778 16.6388 21.3314C16.5488 21.485 16.501 21.6596 16.5 21.8377V34.1627C16.501 34.3407 16.5488 34.5153 16.6388 34.6689C16.7288 34.8226 16.8577 34.9497 17.0125 35.0377L28.0125 41.2252C28.1607 41.3107 28.3289 41.3558 28.5 41.3558C28.6711 41.3558 28.8393 41.3107 28.9875 41.2252L39.9875 35.0377C40.1423 34.9497 40.2712 34.8226 40.3612 34.6689C40.4512 34.5153 40.499 34.3407 40.5 34.1627V34.1627Z" stroke="#2DB324" stroke-width="2" stroke-linecap="round" stroke-linejoin="round"/>
<path d="M34.625 31.0625V24.5625L22.5 17.875" stroke="#2DB324" stroke-width="2" stroke-linecap="round" stroke-linejoin="round"/>
<path d="M40.3617 21.3242L28.6117 27.9992L16.6367 21.3242" stroke="#2DB324" stroke-width="2" stroke-linecap="round" stroke-linejoin="round"/>
<path d="M28.6125 28L28.5 41.35" stroke="#2DB324" stroke-width="2" stroke-linecap="round" stroke-linejoin="round"/>
</svg>
