<svg width="16" height="17" viewBox="0 0 16 17" fill="none" xmlns="http://www.w3.org/2000/svg">
<g clip-path="url(#clip0_278_4679)">
<path d="M5.60136 8.50078C5.60136 7.17535 6.67558 6.10059 8.00107 6.10059C9.32656 6.10059 10.4014 7.17535 10.4014 8.50078C10.4014 9.82621 9.32656 10.901 8.00107 10.901C6.67558 10.901 5.60136 9.82621 5.60136 8.50078ZM4.30381 8.50078C4.30381 10.5427 5.95907 12.1979 8.00107 12.1979C10.0431 12.1979 11.6983 10.5427 11.6983 8.50078C11.6983 6.45886 10.0431 4.80367 8.00107 4.80367C5.95907 4.80367 4.30387 6.45875 4.30387 8.50078H4.30381ZM10.9807 4.65708C10.9807 4.82796 11.0313 4.99502 11.1261 5.13715C11.221 5.27927 11.3559 5.39006 11.5138 5.45552C11.6716 5.52098 11.8454 5.53816 12.013 5.50489C12.1806 5.47162 12.3346 5.38939 12.4555 5.26861C12.5764 5.14782 12.6587 4.9939 12.6921 4.82632C12.7255 4.65873 12.7085 4.485 12.6432 4.3271C12.5778 4.1692 12.4671 4.03422 12.3251 3.93922C12.183 3.84423 12.016 3.79349 11.8451 3.79342H11.8448C11.6157 3.79353 11.396 3.88454 11.234 4.04648C11.072 4.20841 10.9809 4.42802 10.9807 4.65708ZM5.09215 14.3615C4.39015 14.3295 4.0086 14.2126 3.75503 14.1138C3.41886 13.9829 3.17901 13.8271 2.92682 13.5752C2.67464 13.3234 2.51854 13.0838 2.38824 12.7476C2.2894 12.4942 2.17246 12.1125 2.14055 11.4106C2.10565 10.6516 2.09868 10.4236 2.09868 8.5009C2.09868 6.57815 2.10622 6.3508 2.14055 5.59123C2.17252 4.88926 2.29032 4.50835 2.38824 4.25416C2.51912 3.91801 2.67499 3.67816 2.92682 3.42599C3.17866 3.17382 3.41829 3.01772 3.75503 2.88743C4.00848 2.78859 4.39015 2.67166 5.09215 2.63975C5.85112 2.60485 6.07911 2.59788 8.00107 2.59788C9.92303 2.59788 10.1512 2.60531 10.9108 2.63987C11.6128 2.67183 11.9938 2.78963 12.248 2.88755C12.5841 3.01784 12.824 3.17428 13.0762 3.42611C13.3284 3.67793 13.4839 3.91813 13.6148 4.25428C13.7136 4.50772 13.8305 4.88938 13.8624 5.59135C13.8974 6.35092 13.9043 6.57827 13.9043 8.50101C13.9043 10.4238 13.8974 10.6511 13.8624 11.4107C13.8305 12.1126 13.713 12.4942 13.6148 12.7477C13.4839 13.0839 13.328 13.3237 13.0762 13.5753C12.8243 13.8269 12.5841 13.983 12.248 14.1139C11.9945 14.2127 11.6128 14.3297 10.9108 14.3616C10.1519 14.3965 9.92389 14.4035 8.00107 14.4035C6.07825 14.4035 5.85089 14.3965 5.09215 14.3616V14.3615ZM5.03253 1.34438C4.26602 1.37929 3.74224 1.50083 3.28482 1.67881C2.81139 1.86261 2.41007 2.1092 2.00933 2.50929C1.6086 2.90938 1.36263 3.31073 1.17883 3.78472C1.00083 4.24241 0.879293 4.76588 0.844386 5.53237C0.808903 6.30006 0.800781 6.54549 0.800781 8.50078C0.800781 10.4561 0.808903 10.7015 0.844386 11.4692C0.879293 12.2357 1.00083 12.7591 1.17883 13.2168C1.36263 13.6903 1.60865 14.0924 2.00933 14.4923C2.41002 14.8922 2.81081 15.1384 3.28482 15.3228C3.74311 15.5007 4.26602 15.6223 5.03253 15.6572C5.80066 15.6921 6.0457 15.7008 8.00107 15.7008C9.95644 15.7008 10.2019 15.6927 10.9696 15.6572C11.7362 15.6223 12.2596 15.5007 12.7173 15.3228C13.1907 15.1384 13.5921 14.8924 13.9928 14.4923C14.3935 14.0922 14.639 13.6903 14.8233 13.2168C15.0013 12.7591 15.1234 12.2357 15.1578 11.4692C15.1927 10.7009 15.2008 10.4561 15.2008 8.50078C15.2008 6.54549 15.1927 6.30006 15.1578 5.53237C15.1228 4.76582 15.0013 4.24213 14.8233 3.78472C14.639 3.31131 14.3929 2.91001 13.9928 2.50929C13.5927 2.10856 13.1907 1.86261 12.7179 1.67881C12.2596 1.50083 11.7361 1.37871 10.9702 1.34438C10.2023 1.30931 9.95701 1.30078 8.00193 1.30078C6.04685 1.30078 5.80095 1.3089 5.03282 1.34438" fill="white"/>
</g>
<defs>
<clipPath id="clip0_278_4679">
<rect width="16" height="16" fill="white" transform="translate(0 0.5)"/>
</clipPath>
</defs>
</svg>
