<svg width="20" height="20" viewBox="0 0 20 20" fill="none" xmlns="http://www.w3.org/2000/svg">
<path d="M13.125 0L20 3.46627V11.1965L18.75 10.5662V4.87445L13.75 7.39537V9.93599L12.5 10.5662V7.39537L7.5 4.87445V7.1098L6.25 6.47957V3.46627L13.125 0ZM13.125 6.30231L14.8535 5.4259L10.332 2.81635L8.27148 3.86017L13.125 6.30231ZM16.2012 4.75628L17.9785 3.86017L13.125 1.40817L11.6699 2.14673L16.2012 4.75628ZM11.25 11.1965L10 11.8267V11.8168L6.25 13.7075V18.1881L10 16.2875V17.7056L5.625 19.9114L0 17.0655V10.4087L5.625 7.57262L11.25 10.4087V11.1965ZM5 18.1881V13.7075L1.25 11.8168V16.2875L5 18.1881ZM5.625 12.6145L9.22852 10.8026L5.625 8.9808L2.02148 10.8026L5.625 12.6145ZM11.25 12.6046L15.625 10.3988L20 12.6046V17.7942L15.625 20L11.25 17.7942V12.6046ZM15 18.2767V15.2733L12.5 14.0128V17.0162L15 18.2767ZM18.75 17.0162V14.0128L16.25 15.2733V18.2767L18.75 17.0162ZM15.625 14.1802L17.9785 12.9887L15.625 11.807L13.2715 12.9887L15.625 14.1802Z" fill="#5F6C72"/>
</svg>
