<svg width="23" height="21" viewBox="0 0 23 21" fill="none" xmlns="http://www.w3.org/2000/svg">
<path d="M19.0562 16.9855L15.964 14.0954C16.9617 12.904 17.503 11.4326 17.501 9.91797C17.501 8.56904 17.0743 7.2504 16.2748 6.12881C15.4753 5.00721 14.339 4.13304 13.0095 3.61682C11.68 3.10061 10.217 2.96555 8.80565 3.22871C7.39427 3.49187 6.09783 4.14144 5.08028 5.09528C4.06273 6.04912 3.36977 7.26438 3.08903 8.58739C2.80828 9.91041 2.95237 11.2817 3.50307 12.528C4.05376 13.7742 4.98633 14.8394 6.18284 15.5889C7.37935 16.3383 8.78607 16.7383 10.2251 16.7383C11.841 16.7402 13.4105 16.2327 14.6816 15.2975L17.7647 18.1961C17.8493 18.276 17.9499 18.3395 18.0607 18.3827C18.1715 18.426 18.2904 18.4483 18.4105 18.4483C18.5305 18.4483 18.6494 18.426 18.7602 18.3827C18.8711 18.3395 18.9717 18.276 19.0562 18.1961C19.1415 18.1169 19.2091 18.0226 19.2553 17.9187C19.3015 17.8148 19.3252 17.7034 19.3252 17.5908C19.3252 17.4783 19.3015 17.3668 19.2553 17.263C19.2091 17.1591 19.1415 17.0648 19.0562 16.9855ZM4.76819 9.91797C4.76819 8.90627 5.08824 7.9173 5.68785 7.0761C6.28746 6.2349 7.13972 5.57927 8.13684 5.19211C9.13396 4.80495 10.2312 4.70365 11.2897 4.90103C12.3482 5.0984 13.3206 5.58558 14.0837 6.30095C14.8469 7.01633 15.3666 7.92778 15.5772 8.92004C15.7877 9.9123 15.6797 10.9408 15.2666 11.8755C14.8536 12.8102 14.1542 13.6091 13.2568 14.1711C12.3594 14.7332 11.3044 15.0332 10.2251 15.0332C8.77784 15.0332 7.38986 14.4943 6.36649 13.535C5.34312 12.5757 4.76819 11.2746 4.76819 9.91797Z" fill="black"/>
</svg>
