<svg width="16" height="17" viewBox="0 0 16 17" fill="none" xmlns="http://www.w3.org/2000/svg">
<path d="M5.03184 15.0034C11.0699 15.0034 14.3718 9.99811 14.3718 5.6577C14.3718 5.51556 14.3689 5.37406 14.3625 5.23315C15.005 4.76797 15.5595 4.19201 16 3.53226C15.4118 3.79391 14.7789 3.97002 14.1149 4.04942C14.7926 3.64279 15.3129 2.99948 15.5584 2.23267C14.914 2.61516 14.2091 2.8848 13.4739 3.02996C12.8749 2.3915 12.0221 1.99219 11.0778 1.99219C9.26494 1.99219 7.79489 3.46317 7.79489 5.27638C7.79489 5.53416 7.82374 5.78482 7.88006 6.02533C5.15177 5.88797 2.73252 4.58093 1.11343 2.5935C0.821818 3.09477 0.668434 3.66447 0.668943 4.24443C0.668943 5.38401 1.24846 6.39001 2.12976 6.97857C1.60846 6.96264 1.0986 6.82175 0.643057 6.56774C0.642569 6.58153 0.642569 6.59497 0.642569 6.6097C0.642569 8.20042 1.77408 9.52857 3.27613 9.82952C2.99402 9.90639 2.70292 9.94526 2.41054 9.94509C2.19938 9.94509 1.99359 9.9243 1.79359 9.88589C2.21151 11.191 3.42335 12.1407 4.86013 12.1672C3.73659 13.0484 2.32127 13.5732 0.783024 13.5732C0.521349 13.5735 0.259888 13.5583 0 13.5277C1.45281 14.4595 3.17789 15.0032 5.032 15.0032" fill="white"/>
</svg>
