<svg width="16" height="17" viewBox="0 0 16 17" fill="none" xmlns="http://www.w3.org/2000/svg">
<path d="M8.35282 14.0007L5.07549 13.9408C4.01437 13.9199 2.9506 13.9616 1.91028 13.7452C0.327715 13.4221 0.2156 11.8374 0.098284 10.5081C-0.0633656 8.63937 -0.000786222 6.7367 0.304267 4.88354C0.47648 3.84373 1.15421 3.22327 2.20229 3.15575C5.74034 2.91071 9.30191 2.93975 12.8321 3.05407C13.205 3.06455 13.5803 3.12183 13.948 3.18703C15.7627 3.50502 15.807 5.30081 15.9246 6.81254C16.0419 8.33986 15.9924 9.87502 15.7681 11.3919C15.5882 12.6479 15.2441 13.7012 13.7915 13.8028C11.9716 13.9358 10.1935 14.0428 8.36843 14.0088C8.36851 14.0007 8.35802 14.0007 8.35282 14.0007ZM6.42607 10.8209C7.79753 10.0337 9.14282 9.25968 10.5064 8.47778C9.13242 7.6906 7.78969 6.91653 6.42607 6.13463V10.8209Z" fill="white"/>
</svg>
